<?xml version="1.0" encoding="UTF-8"?>
<!DOCTYPE svg PUBLIC "-//W3C//DTD SVG 1.1//EN" "http://www.w3.org/Graphics/SVG/1.1/DTD/svg11.dtd">
<svg version="1.1" xmlns="http://www.w3.org/2000/svg" xmlns:xlink="http://www.w3.org/1999/xlink" x="0" y="0" width="267.873" height="35.446" viewBox="0, 0, 267.873, 35.446">
  <g id="Layer_1" transform="translate(-243.794, -448.221)">
    <path d="M243.794,449.417 L258.263,449.417 L258.263,452.558 L252.73,452.558 L252.73,475.179 L249.327,475.179 L249.327,452.558 L243.794,452.558 L243.794,449.417 z M267.341,467.178 L267.341,457.718 L270.556,457.718 L270.556,475.179 L267.341,475.179 L267.341,472.225 C266.78,474.132 264.985,475.628 262.854,475.628 C260.087,475.628 258.031,473.16 258.031,468.262 L258.031,457.718 L261.246,457.718 L261.246,468.075 C261.246,470.804 262.443,472.412 264.013,472.412 C265.509,472.412 267.303,470.917 267.341,467.178 z M281.677,457.269 C282.425,457.269 283.248,457.606 283.771,457.942 L283.061,461.27 C282.313,460.821 281.602,460.672 281.154,460.672 C279.023,460.672 277.863,464.186 277.863,468.785 L277.863,475.179 L274.648,475.179 L274.648,457.718 L277.863,457.718 L277.863,461.719 C278.574,458.765 280.032,457.269 281.677,457.269 z M293.596,457.269 C296.4,457.269 298.456,459.737 298.456,464.635 L298.456,475.179 L295.241,475.179 L295.241,464.822 C295.241,461.868 294.269,460.335 292.474,460.335 C290.978,460.335 289.146,461.98 289.146,465.719 L289.146,475.179 L285.931,475.179 L285.931,457.718 L289.146,457.718 L289.146,460.634 C289.707,458.728 291.502,457.269 293.596,457.269 z M318.241,467.178 L318.241,457.718 L321.456,457.718 L321.456,475.179 L318.241,475.179 L318.241,472.225 C317.68,474.132 315.885,475.628 313.754,475.628 C310.987,475.628 308.931,473.16 308.931,468.262 L308.931,457.718 L312.146,457.718 L312.146,468.075 C312.146,470.804 313.343,472.412 314.913,472.412 C316.409,472.412 318.203,470.917 318.241,467.178 z M333.213,457.269 C337.064,457.269 339.607,460.934 339.607,466.43 C339.607,471.926 337.064,475.628 333.213,475.628 C331.194,475.628 329.586,474.469 328.764,472.637 L328.764,483.667 L325.548,483.667 L325.548,457.718 L328.764,457.718 L328.764,460.223 C329.586,458.391 331.194,457.269 333.213,457.269 z M332.615,472.562 C334.858,472.562 336.354,470.094 336.354,466.43 C336.354,462.766 334.858,460.335 332.615,460.335 C330.371,460.335 328.838,462.803 328.838,466.43 C328.838,470.094 330.371,472.562 332.615,472.562 z M354.662,470.318 L358.064,457.718 L361.542,457.718 L353.428,483.667 L349.988,483.667 L352.942,474.693 L347.745,457.718 L351.297,457.718 L354.662,470.318 z M369.58,475.628 C365.392,475.628 362.588,471.964 362.588,466.43 C362.588,460.934 365.392,457.269 369.58,457.269 C373.767,457.269 376.534,460.934 376.534,466.43 C376.534,471.964 373.767,475.628 369.58,475.628 z M369.58,472.562 C371.823,472.562 373.281,470.094 373.281,466.43 C373.281,462.766 371.823,460.335 369.58,460.335 C367.374,460.335 365.878,462.766 365.878,466.43 C365.878,470.094 367.374,472.562 369.58,472.562 z M388.895,467.178 L388.895,457.718 L392.111,457.718 L392.111,475.179 L388.895,475.179 L388.895,472.225 C388.334,474.132 386.54,475.628 384.408,475.628 C381.641,475.628 379.585,473.16 379.585,468.262 L379.585,457.718 L382.801,457.718 L382.801,468.075 C382.801,470.804 383.997,472.412 385.567,472.412 C387.063,472.412 388.858,470.917 388.895,467.178 z M403.232,457.269 C403.979,457.269 404.802,457.606 405.325,457.942 L404.615,461.27 C403.867,460.821 403.157,460.672 402.708,460.672 C400.577,460.672 399.418,464.186 399.418,468.785 L399.418,475.179 L396.202,475.179 L396.202,457.718 L399.418,457.718 L399.418,461.719 C400.128,458.765 401.586,457.269 403.232,457.269 z M418.597,470.804 L422.075,457.718 L425.589,457.718 L420.093,475.179 L417.139,475.179 L411.643,457.718 L415.12,457.718 L418.597,470.804 z M433.661,475.628 C429.474,475.628 426.669,471.964 426.669,466.43 C426.669,460.934 429.474,457.269 433.661,457.269 C437.849,457.269 440.616,460.934 440.616,466.43 C440.616,471.964 437.849,475.628 433.661,475.628 z M433.661,472.562 C435.905,472.562 437.363,470.094 437.363,466.43 C437.363,462.766 435.905,460.335 433.661,460.335 C431.455,460.335 429.96,462.766 429.96,466.43 C429.96,470.094 431.455,472.562 433.661,472.562 z M447.032,475.179 L443.816,475.179 L443.816,448.221 L447.032,448.221 L447.032,475.179 z M460.279,467.178 L460.279,457.718 L463.495,457.718 L463.495,475.179 L460.279,475.179 L460.279,472.225 C459.719,474.132 457.924,475.628 455.793,475.628 C453.026,475.628 450.969,473.16 450.969,468.262 L450.969,457.718 L454.185,457.718 L454.185,468.075 C454.185,470.804 455.381,472.412 456.952,472.412 C458.447,472.412 460.242,470.917 460.279,467.178 z M483.589,457.269 C486.506,457.269 488.45,460.074 488.45,464.299 L488.45,475.179 L485.235,475.179 L485.235,464.523 C485.235,461.793 484.262,460.335 482.468,460.335 C480.374,460.335 479.589,462.28 479.589,464.71 L479.589,475.179 L476.373,475.179 L476.373,464.859 C476.373,461.906 475.401,460.335 473.606,460.335 C472.111,460.335 470.802,461.98 470.802,465.719 L470.802,475.179 L467.587,475.179 L467.587,457.718 L470.802,457.718 L470.802,460.447 C471.326,458.615 472.709,457.269 474.765,457.269 C476.635,457.269 478.168,458.391 478.99,460.634 C479.701,458.765 481.496,457.269 483.589,457.269 z M505.091,466.392 C505.091,466.654 505.054,467.215 505.016,467.851 L494.809,467.851 C495.108,470.73 496.529,472.562 498.51,472.562 C499.969,472.562 501.277,471.477 502.025,469.832 L504.455,470.954 C503.296,473.758 501.015,475.628 498.249,475.628 C494.36,475.628 491.481,471.926 491.481,466.355 C491.481,460.934 494.211,457.269 498.473,457.269 C502.362,457.269 505.091,460.335 505.091,466.392 z M494.809,465.159 L501.838,465.159 C501.838,461.756 500.268,460.335 498.51,460.335 C496.491,460.335 495.145,462.205 494.809,465.159 z M509.498,475.553 C508.377,475.553 507.404,474.618 507.404,473.31 C507.404,471.964 508.377,470.991 509.498,470.991 C510.657,470.991 511.667,471.964 511.667,473.31 C511.667,474.618 510.657,475.553 509.498,475.553 z" fill="#EDF0F5" id="Layer_1"/>
  </g>
</svg>
